<?xml version="1.0" standalone="no"?>
<!DOCTYPE svg PUBLIC "-//W3C//DTD SVG 20010904//EN"
 "http://www.w3.org/TR/2001/REC-SVG-20010904/DTD/svg10.dtd">
<svg version="1.0" xmlns="http://www.w3.org/2000/svg"
 width="1632.000000pt" height="1632.000000pt" viewBox="0 0 1632.000000 1632.000000"
 preserveAspectRatio="xMidYMid meet">
<metadata>
Created by potrace 1.14, written by Peter Selinger 2001-2017
</metadata>
<g transform="translate(0.000000,1632.000000) scale(0.100000,-0.100000)"
fill="#000000" stroke="none">
<path d="M5841 11948 c12 -29 37 -96 56 -148 20 -52 40 -106 46 -120 6 -14 11
-29 12 -35 2 -5 15 -41 30 -80 15 -38 35 -92 46 -120 10 -27 24 -63 30 -80 7
-16 13 -32 13 -35 1 -3 6 -18 13 -35 6 -16 22 -59 36 -95 13 -36 28 -74 32
-85 5 -11 9 -22 10 -25 1 -3 7 -18 13 -33 7 -15 15 -39 18 -53 3 -13 10 -27
15 -30 5 -3 9 -12 9 -21 0 -14 34 -111 60 -168 5 -11 59 -155 120 -320 61
-165 115 -309 120 -320 5 -11 23 -58 40 -105 17 -47 34 -94 39 -105 18 -40 53
-134 52 -140 0 -2 10 -30 24 -60 13 -31 25 -59 26 -63 1 -4 6 -18 11 -32 19
-49 40 -106 60 -165 11 -33 25 -64 29 -69 5 -6 9 -19 9 -31 0 -12 5 -26 11
-32 6 -6 12 -17 13 -24 2 -8 6 -21 9 -29 3 -8 37 -98 76 -200 38 -102 89 -239
114 -305 l45 -119 16 38 c9 21 16 44 16 51 0 6 3 15 8 19 4 4 7 11 8 14 0 4 4
16 9 27 32 80 69 176 105 270 22 61 45 119 50 130 5 11 16 43 26 70 9 28 21
54 26 59 4 6 8 15 8 22 0 6 8 29 17 50 9 22 17 41 17 44 1 3 25 68 55 145 52
136 64 168 82 210 5 11 20 52 34 90 14 39 29 79 34 90 18 38 132 340 136 359
2 10 8 23 13 30 4 6 14 29 21 51 7 22 19 54 26 70 7 17 27 68 45 115 17 47 37
96 43 110 5 14 11 30 12 35 3 14 44 115 56 137 5 10 9 23 9 30 0 7 6 25 14 39
7 15 22 51 31 80 10 30 21 59 25 64 4 6 13 28 20 50 7 22 17 46 23 53 5 6 7
12 4 12 -3 0 10 36 29 80 18 44 31 80 27 80 -3 0 -1 6 4 13 5 6 20 41 33 77
13 36 27 69 32 75 4 5 8 18 8 30 0 12 4 25 9 30 8 9 35 78 121 308 l29 77
-1269 0 -1270 0 21 -52z"/>
<path d="M2 10943 c12 -25 47 -107 98 -228 24 -55 53 -124 66 -153 13 -29 24
-55 24 -57 0 -6 37 -92 51 -117 5 -10 9 -25 9 -33 0 -8 4 -15 9 -15 5 0 13
-15 16 -32 4 -18 11 -37 15 -43 6 -8 45 -98 157 -362 7 -18 12 -34 11 -35 -1
-2 5 -16 14 -33 9 -16 23 -46 31 -65 29 -69 80 -186 98 -227 11 -23 19 -44 19
-47 0 -3 12 -31 26 -63 14 -32 30 -67 34 -78 4 -11 20 -46 34 -78 14 -32 26
-60 26 -63 0 -3 8 -24 19 -47 43 -97 103 -236 106 -247 0 -3 11 -27 24 -55 13
-27 29 -68 37 -89 8 -22 23 -58 34 -80 50 -106 98 -225 92 -230 -3 -3 0 -6 6
-6 7 0 12 -8 12 -18 0 -10 4 -22 8 -28 5 -5 16 -27 25 -49 8 -22 23 -58 33
-80 10 -22 18 -42 19 -45 3 -9 26 -63 40 -95 52 -115 73 -165 68 -165 -3 0 -1
-6 5 -12 5 -7 33 -69 62 -138 28 -69 60 -143 70 -165 10 -22 55 -128 100 -235
46 -107 90 -211 98 -230 9 -19 16 -37 17 -40 1 -3 8 -21 17 -40 8 -19 28 -64
43 -100 15 -36 36 -84 46 -107 10 -23 19 -44 19 -47 0 -3 11 -29 24 -58 56
-123 69 -154 70 -163 1 -5 14 -36 29 -68 15 -32 27 -60 27 -62 0 -5 22 -55 62
-142 11 -24 21 -49 22 -55 1 -7 7 -22 14 -34 6 -12 20 -43 30 -70 11 -27 32
-75 46 -106 14 -31 26 -59 26 -62 0 -4 9 -25 19 -49 59 -129 79 -176 74 -180
-18 -19 83 -23 469 -23 240 1 440 5 444 9 4 4 9 13 10 20 1 7 11 32 22 57 11
25 33 74 47 110 15 36 33 79 40 95 8 17 35 80 61 140 25 61 54 128 64 150 10
22 34 78 53 125 19 47 46 108 58 135 13 28 24 59 26 70 2 10 7 22 12 25 5 3
12 16 16 30 4 14 17 48 30 75 12 28 34 79 49 115 15 36 37 85 49 110 11 25 21
50 23 55 1 6 25 64 54 130 59 135 67 157 68 168 1 4 8 20 16 35 18 35 68 144
71 157 2 9 21 53 50 120 8 17 39 91 70 165 31 74 63 149 70 165 8 17 66 154
130 305 165 388 204 479 226 527 10 24 19 45 19 49 0 3 12 31 26 62 14 31 29
66 34 77 4 11 20 46 34 78 14 32 26 60 26 63 0 3 11 29 24 57 13 29 40 93 61
142 20 50 47 113 59 140 12 28 42 96 66 153 24 56 46 102 51 102 4 0 18 -28
32 -62 14 -35 39 -93 56 -131 17 -37 31 -69 31 -71 0 -4 130 -311 165 -391 10
-22 19 -42 20 -45 4 -13 101 -242 120 -285 8 -16 27 -60 44 -97 16 -38 28 -68
26 -68 -2 0 6 -21 19 -47 13 -27 41 -88 61 -138 20 -49 46 -109 56 -132 25
-56 41 -98 37 -98 -2 -1 4 -12 13 -25 9 -14 26 -51 37 -82 12 -32 26 -66 31
-75 5 -10 16 -34 24 -53 45 -107 71 -169 87 -205 10 -22 37 -85 60 -140 22
-55 48 -112 56 -127 8 -16 12 -28 8 -28 -3 0 -2 -6 4 -12 5 -7 22 -42 37 -78
15 -36 33 -80 41 -97 71 -165 106 -248 108 -258 1 -5 12 -31 24 -57 31 -68 55
-124 83 -193 13 -33 27 -61 32 -63 4 -2 7 -9 7 -17 0 -7 11 -37 24 -66 13 -30
59 -137 101 -239 43 -102 88 -207 100 -235 13 -27 35 -79 50 -115 15 -36 33
-78 40 -95 7 -16 27 -62 44 -102 17 -39 31 -77 31 -85 0 -11 -70 -188 -100
-253 -5 -11 -60 -139 -121 -285 -61 -146 -116 -276 -122 -290 -6 -14 -11 -27
-12 -30 -9 -26 -20 -51 -36 -82 -11 -21 -20 -40 -19 -43 0 -3 -7 -22 -16 -43
-8 -20 -35 -84 -59 -142 -24 -58 -62 -147 -84 -199 -23 -52 -41 -98 -41 -103
0 -4 208 -7 462 -6 l462 3 33 80 c19 44 38 89 42 100 5 11 26 61 46 110 21 50
45 108 55 130 10 22 42 96 70 165 29 69 57 131 62 138 6 6 8 12 5 12 -6 0 35
102 82 205 10 22 28 65 40 95 12 30 26 64 31 75 11 24 42 98 45 105 3 8 25 63
32 80 3 8 7 17 8 20 1 3 9 21 18 40 46 104 84 200 79 200 -4 0 -2 4 3 8 6 4
26 45 44 92 19 47 45 107 58 134 13 28 23 53 23 57 0 3 12 33 27 65 14 33 27
64 28 69 2 6 12 32 24 58 20 43 42 95 46 107 4 13 38 93 65 155 8 17 14 32 15
35 3 11 25 62 46 107 12 26 22 52 23 58 2 5 10 27 19 48 9 20 15 39 14 41 -1
1 4 10 12 19 7 10 10 17 5 17 -5 0 -4 4 2 8 5 4 18 30 29 57 10 28 28 73 41
100 12 28 46 106 74 175 29 69 60 143 69 165 10 22 26 60 36 85 10 25 28 68
40 95 12 28 28 66 35 85 7 19 17 39 22 45 4 5 8 15 8 22 0 7 11 36 24 65 29
64 60 137 156 368 40 96 77 179 81 185 5 5 9 15 9 22 0 7 12 38 26 70 14 32
29 67 34 78 29 66 119 284 125 305 4 14 11 27 14 30 6 4 41 89 47 110 1 5 22
54 49 115 8 17 26 59 40 95 15 36 38 89 51 118 13 29 24 57 24 62 0 6 4 18 10
28 20 36 63 138 63 150 0 6 4 12 9 12 4 0 8 7 8 14 0 8 16 49 35 92 19 42 35
83 35 90 0 36 20 4 70 -113 29 -71 62 -146 71 -168 10 -22 32 -74 49 -115 17
-41 42 -99 56 -128 13 -29 24 -57 24 -61 0 -5 7 -22 15 -38 8 -15 21 -44 29
-63 8 -19 26 -61 40 -93 14 -32 26 -60 26 -63 0 -3 9 -24 19 -47 11 -24 41
-92 66 -152 26 -61 53 -125 61 -142 37 -85 44 -102 69 -163 14 -36 37 -89 51
-118 13 -29 24 -55 24 -58 0 -3 9 -24 19 -47 11 -23 51 -118 91 -212 40 -93
97 -226 127 -295 30 -69 56 -129 57 -135 1 -5 9 -26 18 -45 8 -19 28 -64 43
-100 15 -36 33 -78 40 -95 7 -16 28 -64 45 -105 17 -41 40 -94 51 -117 10 -24
19 -45 19 -47 0 -2 10 -25 22 -52 12 -27 23 -51 23 -54 3 -11 27 -66 41 -94 8
-16 14 -35 14 -43 0 -7 5 -13 10 -13 6 0 10 -10 10 -23 0 -13 4 -27 9 -32 5
-6 21 -39 36 -75 15 -36 33 -78 40 -95 7 -16 32 -75 55 -130 54 -129 64 -151
88 -205 11 -25 36 -83 55 -130 20 -47 44 -103 53 -125 10 -22 18 -42 19 -45 1
-3 10 -23 19 -45 10 -22 26 -58 35 -80 l18 -40 441 0 c280 0 445 4 451 10 5 6
31 60 56 120 56 131 70 163 92 212 9 21 18 43 19 48 1 9 33 83 64 150 8 17 30
70 35 85 1 3 10 23 19 44 10 21 83 192 162 380 80 188 149 350 154 361 5 11
23 51 39 88 17 38 31 71 31 74 0 3 7 19 15 36 41 90 205 483 205 494 0 7 4 13
8 13 5 0 14 15 19 33 16 47 94 230 103 242 4 6 11 21 15 35 7 21 24 63 65 155
5 11 35 81 66 155 31 74 64 151 72 170 9 19 16 37 17 40 1 3 6 16 12 30 6 14
43 102 83 195 82 194 90 213 118 275 11 25 70 164 132 310 62 146 113 266 114
267 3 3 13 -16 51 -101 15 -33 28 -64 30 -70 2 -10 10 -30 52 -124 9 -20 17
-39 18 -42 4 -12 27 -67 40 -95 8 -16 26 -59 40 -95 15 -36 36 -84 46 -107 20
-44 41 -94 44 -103 1 -3 8 -21 17 -40 8 -19 27 -64 42 -100 15 -36 36 -84 47
-107 10 -24 19 -45 19 -47 0 -2 10 -25 22 -52 12 -27 23 -51 23 -54 2 -8 25
-61 40 -95 30 -65 72 -160 74 -167 3 -10 30 -76 46 -113 8 -16 53 -122 100
-235 104 -244 110 -259 132 -307 9 -21 18 -42 19 -48 2 -5 35 -84 74 -175 82
-189 93 -213 95 -220 2 -6 6 -16 95 -225 40 -93 79 -186 88 -205 9 -19 17 -37
18 -40 1 -6 7 -20 69 -165 25 -60 56 -130 67 -155 12 -25 21 -51 21 -57 0 -7
4 -13 9 -13 4 0 8 -8 8 -18 0 -10 4 -22 8 -28 4 -5 23 -45 41 -89 18 -44 41
-98 51 -120 10 -22 36 -85 59 -140 23 -55 46 -109 51 -120 5 -11 22 -49 37
-85 l28 -65 455 0 c290 0 458 3 462 9 4 6 3 15 -1 21 -4 5 -15 28 -24 50 -8
22 -26 63 -38 90 -13 28 -24 55 -25 60 -2 6 -24 57 -49 115 -26 58 -53 121
-60 140 -7 19 -24 60 -38 90 -14 30 -62 143 -107 250 -45 107 -88 208 -96 224
-8 16 -14 35 -14 43 0 7 -4 13 -9 13 -5 0 -12 12 -16 27 -3 15 -17 52 -31 81
-13 29 -24 55 -24 57 0 2 -11 28 -24 57 -13 29 -40 94 -61 143 -20 50 -45 108
-55 130 -10 22 -25 56 -33 75 -8 19 -33 78 -55 130 -23 52 -69 160 -102 240
-34 80 -68 159 -75 175 -7 17 -25 59 -40 95 -15 36 -36 83 -45 105 -10 22 -30
69 -45 105 -14 36 -32 79 -40 95 -11 26 -57 134 -86 205 -6 14 -10 25 -8 25 2
0 -5 14 -14 30 -21 37 -41 87 -39 98 1 4 -3 7 -8 7 -6 0 -10 5 -10 12 0 6 -43
113 -96 237 -114 269 -122 287 -140 326 -7 17 -28 64 -45 105 -17 41 -37 89
-44 105 -18 40 -48 109 -50 115 -1 3 -7 19 -14 35 -11 29 -17 42 -47 110 -25
55 -95 220 -98 230 -2 6 -11 28 -21 50 -9 22 -35 83 -57 135 -22 52 -48 113
-58 135 -10 22 -37 85 -60 140 -23 55 -52 123 -64 150 -12 28 -45 103 -72 168
l-49 117 -447 0 -447 0 -20 -42 c-11 -24 -77 -178 -146 -343 -70 -165 -135
-320 -146 -344 -11 -24 -29 -65 -39 -91 -10 -26 -27 -67 -38 -91 -11 -24 -28
-64 -38 -89 -10 -25 -23 -48 -29 -52 -5 -4 -7 -8 -3 -8 6 0 -18 -61 -52 -135
-32 -69 -150 -356 -150 -364 0 -6 -4 -11 -10 -11 -5 0 -10 -6 -10 -14 0 -7
-12 -40 -27 -72 -15 -33 -29 -68 -30 -78 -2 -11 -9 -26 -15 -34 -7 -8 -13 -19
-14 -26 -2 -9 -99 -238 -147 -348 -66 -148 -147 -345 -147 -355 0 -7 -5 -13
-10 -13 -6 0 -9 -3 -8 -7 1 -5 -3 -19 -9 -33 -43 -102 -68 -161 -83 -195 -9
-22 -34 -80 -55 -130 -21 -49 -51 -118 -66 -153 -16 -35 -29 -65 -29 -67 0 -2
-10 -25 -22 -52 -12 -26 -22 -50 -23 -53 -4 -13 -20 -49 -41 -98 -13 -29 -24
-55 -24 -58 0 -3 -11 -29 -24 -57 -27 -60 -240 -562 -250 -591 -10 -29 -19
-14 -81 134 -32 74 -65 153 -75 175 -9 22 -48 112 -85 200 -66 157 -84 200
-111 260 -44 100 -195 459 -197 469 -1 6 -4 13 -7 16 -3 3 -31 66 -62 140 -31
74 -67 158 -80 185 -12 28 -23 52 -23 55 -4 22 -31 80 -37 80 -4 0 -7 3 -6 8
2 9 -6 30 -48 124 -19 43 -34 80 -34 82 0 3 -14 35 -30 71 -16 36 -30 71 -30
78 0 7 -4 17 -9 22 -6 6 -24 46 -42 90 -17 44 -36 89 -42 100 -6 11 -12 25
-13 30 -3 10 -62 150 -94 220 -16 35 -28 65 -85 200 -7 17 -19 46 -28 65 -8
19 -41 96 -72 170 -73 172 -79 185 -104 242 -12 26 -21 49 -21 52 0 3 -11 29
-24 58 -14 29 -37 82 -51 118 -15 36 -36 84 -46 107 -20 44 -41 94 -44 103 -1
3 -8 21 -17 40 -8 19 -41 97 -73 173 l-58 137 -447 0 -447 0 -37 -87 c-21 -49
-42 -97 -46 -108 -5 -11 -20 -46 -34 -77 -14 -31 -26 -59 -26 -62 0 -2 -10
-26 -22 -53 -12 -26 -22 -50 -23 -53 -3 -8 -24 -58 -75 -180 -27 -63 -85 -203
-130 -310 -45 -107 -87 -208 -95 -225 -7 -16 -30 -70 -50 -120 -21 -49 -48
-114 -61 -143 -13 -29 -24 -58 -24 -65 0 -7 -4 -17 -8 -22 -5 -6 -25 -49 -45
-98 -77 -184 -108 -256 -162 -387 -31 -74 -65 -155 -76 -180 -11 -25 -20 -48
-20 -52 0 -4 -11 -29 -24 -54 -14 -26 -25 -55 -25 -64 0 -10 -7 -23 -15 -30
-8 -7 -15 -18 -15 -25 0 -11 -17 -55 -55 -140 -7 -16 -26 -61 -41 -100 -15
-38 -30 -72 -33 -75 -3 -3 -7 -12 -9 -20 -3 -13 -32 -84 -72 -175 -5 -11 -39
-92 -75 -180 -37 -88 -105 -250 -152 -360 -47 -110 -86 -206 -86 -212 0 -7 -4
-13 -9 -13 -4 0 -8 -6 -8 -13 0 -7 -23 -67 -51 -133 -106 -249 -109 -254 -123
-199 -4 14 -18 51 -32 83 -14 31 -31 68 -36 82 -6 14 -17 39 -24 55 -7 17 -28
64 -45 105 -33 81 -48 115 -72 170 -13 31 -44 104 -83 198 -8 17 -20 47 -28
65 -8 17 -33 74 -55 126 -23 51 -41 100 -41 107 0 8 -4 14 -10 14 -5 0 -10 6
-10 13 0 12 -47 126 -94 232 -8 17 -33 75 -56 130 -23 55 -50 118 -60 140 -10
22 -36 85 -60 140 -40 95 -61 144 -81 190 -34 79 -210 492 -213 500 -3 10 -25
61 -50 120 -8 17 -26 59 -41 95 -31 72 -30 72 -110 255 -31 72 -57 135 -59
140 -1 6 -10 28 -20 50 -23 53 -39 89 -41 95 -2 6 -33 79 -45 105 -5 11 -30
70 -55 130 -26 61 -54 126 -63 145 -9 19 -17 37 -17 40 0 5 -57 141 -90 215
-61 139 -69 158 -67 168 1 4 -3 7 -8 7 -5 0 -9 3 -8 8 1 4 -6 26 -17 50 l-19
42 -447 0 -447 0 -21 -45 c-12 -25 -21 -47 -21 -50 0 -3 -16 -39 -35 -81 -19
-41 -35 -77 -35 -80 0 -3 -98 -236 -135 -319 -12 -28 -26 -63 -30 -75 -1 -3
-14 -32 -28 -64 -15 -33 -30 -70 -33 -83 -4 -13 -9 -23 -13 -23 -4 0 -8 -6 -8
-12 0 -7 -14 -43 -32 -81 -17 -37 -31 -74 -31 -82 0 -8 -4 -15 -10 -15 -5 0
-10 -8 -10 -17 0 -10 -7 -31 -15 -47 -9 -16 -38 -84 -66 -150 -27 -67 -56
-134 -64 -151 -7 -16 -22 -50 -33 -75 -11 -25 -32 -74 -46 -110 -15 -36 -33
-77 -42 -92 -8 -16 -12 -28 -8 -28 3 0 -1 -11 -10 -25 -9 -13 -16 -31 -16 -40
0 -8 -4 -15 -10 -15 -5 0 -10 -7 -10 -16 0 -8 -11 -39 -24 -67 -13 -29 -49
-113 -81 -187 -31 -74 -64 -148 -72 -165 -8 -16 -16 -37 -18 -45 -2 -8 -14
-37 -26 -65 -13 -27 -24 -52 -24 -55 -2 -6 -10 -24 -70 -165 -25 -60 -53 -123
-60 -140 -8 -16 -32 -75 -56 -130 -23 -55 -50 -120 -61 -145 -11 -25 -25 -58
-32 -75 -7 -16 -24 -54 -37 -84 -13 -30 -24 -57 -25 -60 0 -3 -8 -23 -17 -43
-28 -64 -46 -108 -45 -111 1 -1 -5 -15 -14 -32 -8 -16 -27 -57 -41 -90 -14
-33 -37 -86 -51 -118 -14 -32 -26 -61 -26 -65 0 -4 -11 -29 -25 -56 -14 -27
-25 -53 -25 -56 0 -4 -9 -28 -20 -54 -12 -25 -21 -49 -21 -53 0 -5 -6 -17 -12
-28 -7 -11 -24 -48 -37 -82 -14 -35 -30 -63 -37 -63 -6 0 -17 17 -24 38 -6 20
-16 43 -22 50 -5 6 -6 12 -2 12 5 0 1 8 -8 18 -8 9 -16 20 -16 25 -1 4 -8 23
-16 43 -8 20 -15 38 -15 41 0 2 -12 30 -26 61 -30 65 -32 71 -104 242 -29 69
-64 150 -77 180 -14 30 -40 91 -58 135 -36 88 -148 353 -169 400 -30 64 -46
103 -46 108 0 3 -13 34 -29 69 -16 35 -48 108 -71 163 -37 89 -48 116 -81 190
-4 11 -19 46 -33 77 -13 31 -22 59 -18 62 3 3 1 6 -5 6 -10 0 -28 46 -25 63 1
4 -2 7 -8 7 -5 0 -10 5 -10 11 0 5 -9 29 -19 52 -10 23 -31 71 -45 107 -15 36
-33 79 -41 95 -7 17 -20 46 -28 65 -56 135 -70 168 -83 195 -7 17 -61 143
-119 280 -108 254 -173 408 -205 480 -10 22 -41 96 -70 165 -29 69 -59 141
-67 160 -9 19 -24 55 -35 80 -11 25 -23 54 -28 65 -12 30 -35 84 -62 145 -14
30 -30 70 -37 88 l-13 32 -465 0 c-255 0 -463 -3 -461 -7z"/>
</g>
</svg>
