<svg width="220" height="24" viewBox="0 0 220 24" fill="none" xmlns="http://www.w3.org/2000/svg"><path d="M40.687 3.279l-5.366 12.595-5.366-12.595H27.16l-5.328 12.684-5.405-12.684h-2.799L8.262 15.874 2.896 3.278H0l6.864 16.11h2.8L15.03 6.795l5.362 12.59L18.452 24h2.896l7.22-17.182 5.355 12.571h2.796l5.366-12.594 5.366 12.594h2.896l-6.864-16.11h-2.796z" fill="#fff"/><path d="M18.193 0l3.926 10.419L26.126 0h-7.933zM68.64 7.15l-3.123 10.152h-1.682l-2.324-7.198-2.277 7.198h-1.681L54.347 7.151h2.016l2.099 7.102 2.283-7.102h1.51l2.311 7.082 2.017-7.082h2.058zM74.752 7c1.012-.009 1.919.208 2.72.65a4.69 4.69 0 0 1 1.88 1.866c.447.797.664 1.7.65 2.707.01.756-.116 1.46-.376 2.112a4.81 4.81 0 0 1-1.08 1.661 4.839 4.839 0 0 1-1.675 1.067 5.7 5.7 0 0 1-2.119.376 5.78 5.78 0 0 1-2.126-.383 4.844 4.844 0 0 1-1.654-1.06 4.877 4.877 0 0 1-1.074-1.654 5.727 5.727 0 0 1-.382-2.12c0-1.02.218-1.927.656-2.72a4.657 4.657 0 0 1 1.852-1.845C72.822 7.219 73.731 7 74.752 7zm0 8.764c.984 0 1.782-.326 2.392-.978.611-.656.916-1.51.916-2.563 0-1.04-.31-1.89-.93-2.55-.614-.665-1.407-.998-2.378-.998-.97 0-1.761.33-2.372.991-.61.661-.916 1.513-.916 2.557 0 1.053.303 1.907.909 2.563.61.652 1.404.978 2.379.978zM86.537 7c1.012-.009 1.919.208 2.72.65a4.689 4.689 0 0 1 1.88 1.866c.447.797.664 1.7.65 2.707a5.47 5.47 0 0 1-.376 2.112 4.81 4.81 0 0 1-1.08 1.661 4.839 4.839 0 0 1-1.675 1.067 5.7 5.7 0 0 1-2.119.376 5.78 5.78 0 0 1-2.126-.383 4.846 4.846 0 0 1-1.654-1.06 4.876 4.876 0 0 1-1.073-1.654 5.727 5.727 0 0 1-.383-2.12c0-1.02.218-1.927.656-2.72a4.658 4.658 0 0 1 1.853-1.845C84.607 7.219 85.516 7 86.537 7zm0 8.764c.984 0 1.782-.326 2.393-.978.61-.656.916-1.51.916-2.563 0-1.04-.31-1.89-.93-2.55-.615-.665-1.408-.998-2.379-.998-.97 0-1.761.33-2.372.991-.61.661-.916 1.513-.916 2.557 0 1.053.303 1.907.91 2.563.61.652 1.403.978 2.378.978zM97.413 7.15l2.659 4.157 2.673-4.156h2.133l-3.883 5.77v4.381h-1.846V12.92l-3.876-5.77h2.14zm12.64-.15c1.011-.009 1.918.208 2.72.65a4.683 4.683 0 0 1 1.88 1.866c.447.797.663 1.7.65 2.707a5.47 5.47 0 0 1-.376 2.112 4.818 4.818 0 0 1-1.08 1.661 4.848 4.848 0 0 1-1.675 1.067 5.7 5.7 0 0 1-2.119.376 5.776 5.776 0 0 1-2.126-.383 4.852 4.852 0 0 1-1.655-1.06 4.89 4.89 0 0 1-1.073-1.654 5.73 5.73 0 0 1-.383-2.12c0-1.02.219-1.927.657-2.72a4.655 4.655 0 0 1 1.852-1.845c.798-.438 1.707-.657 2.728-.657zm0 8.764c.984 0 1.782-.326 2.392-.978.611-.656.916-1.51.916-2.563 0-1.04-.31-1.89-.929-2.55-.616-.665-1.409-.998-2.379-.998-.971 0-1.762.33-2.372.991-.611.661-.916 1.513-.916 2.557 0 1.053.303 1.907.909 2.563.611.652 1.403.978 2.379.978zm6.931-8.614h1.86v6.385c0 .72.198 1.272.594 1.655.397.383.946.574 1.648.574.725 0 1.278-.196 1.661-.588.383-.392.574-.939.574-1.64V7.15h1.853v6.48c0 1.176-.365 2.106-1.094 2.79-.729.678-1.727 1.018-2.994 1.018-1.262 0-2.263-.342-3.001-1.026-.734-.683-1.101-1.61-1.101-2.782V7.15zm18.997 0v10.152h-1.914l-4.846-7.157v7.157h-1.86V7.151h1.914l4.847 7.143V7.151h1.859zm11.977 5.572c0 1.408-.458 2.548-1.374 3.418-.916.866-2.119 1.299-3.609 1.299-1.568 0-2.828-.474-3.781-1.422-.952-.948-1.428-2.204-1.428-3.767-.014-1.011.193-1.918.622-2.72a4.59 4.59 0 0 1 1.839-1.867c.793-.446 1.695-.663 2.707-.649 1.248 0 2.303.31 3.165.93.866.62 1.383 1.433 1.551 2.44h-1.9c-.169-.524-.506-.943-1.012-1.258-.506-.319-1.093-.478-1.763-.478-.998 0-1.794.33-2.386.99-.593.662-.889 1.537-.889 2.626 0 1.09.299 1.957.896 2.604.601.643 1.403.964 2.406.964.852 0 1.565-.234 2.14-.704.578-.47.888-1.07.929-1.805h-3.821V11.93h5.653c.037.31.055.574.055.793zm15.203 4.58l-.977-8.19-2.475 8.19h-2.017l-2.481-8.36-1.019 8.36h-1.852l1.306-10.151h2.727l2.365 8.19 2.482-8.19h2.591l1.244 10.151h-1.894zm3.657-10.152h7.212v1.641h-5.352v2.673h4.928v1.538h-4.928v2.66h5.352v1.64h-7.212V7.151zm9.12 0h3.875c1.103 0 2.047.213 2.831.636.788.424 1.378 1.014 1.77 1.77.397.757.595 1.646.595 2.667 0 1.604-.465 2.853-1.395 3.746-.925.889-2.192 1.333-3.801 1.333h-3.875V7.151zm3.862 8.511c1.034 0 1.834-.303 2.399-.909.565-.61.848-1.449.848-2.515 0-1.103-.29-1.953-.868-2.55-.575-.597-1.367-.896-2.379-.896h-2.003v6.87h2.003zm6.979 1.641V7.151h1.86v10.151h-1.86zm8.723-10.288c1.24 0 2.295.324 3.165.97a3.957 3.957 0 0 1 1.606 2.557h-1.975a2.46 2.46 0 0 0-1.012-1.36c-.501-.337-1.096-.506-1.784-.506-.948 0-1.709.326-2.283.978-.57.651-.855 1.508-.855 2.57 0 1.08.287 1.941.862 2.584.574.638 1.328.957 2.262.957.688 0 1.285-.169 1.791-.506.511-.342.85-.795 1.019-1.36h1.975c-.196 1.062-.731 1.918-1.606 2.57-.87.647-1.925.97-3.165.97-.98.014-1.859-.197-2.639-.635a4.582 4.582 0 0 1-1.818-1.86c-.433-.801-.643-1.708-.629-2.72 0-1.545.472-2.798 1.415-3.76.943-.966 2.167-1.449 3.671-1.449zm12.53 8.203h-4.409l-.766 2.085h-2.016l3.985-10.151h1.948l4.116 10.151h-2.085l-.773-2.085zm-.54-1.456l-1.668-4.484-1.654 4.484h3.322zm4.84-6.611h1.859v8.47h5.114v1.682h-6.973V7.151z" fill="#fff"/></svg>