<svg width="160" height="30" viewBox="0 0 160 30" fill="none" xmlns="http://www.w3.org/2000/svg"><path fill-rule="evenodd" clip-rule="evenodd" d="M138.558 0H160v2.893h-21.442V0zm-33.96 13.5l7.076 9h-3.593l-7.074-9.214-.436-1.607c2.722 0 6.64-.858 6.64-4.286 0-4.072-4.572-4.5-4.572-4.5H90.013V22.5h-2.939V0h16.545s6.313 1.072 6.53 7.072c.11 3.75-3.265 6.428-5.551 6.428zm25.906 0l7.073 9h-3.699l-6.967-9.214-.434-1.607c2.612 0 6.639-.858 6.639-4.286 0-4.072-4.572-4.5-4.572-4.5h-12.626V22.5h-3.046V0h16.652s6.314 1.072 6.531 7.072c.108 3.75-3.375 6.428-5.551 6.428zm-112.11 9h2.94V0h-2.94v17.464L3.049 0H0v22.5h3.048V5.036L18.395 22.5zM138.559 9.964H160v2.893h-21.442V9.965zm0 9.644H160V22.5h-21.442v-2.892zM58.885 22.5L71.075 0h2.068l12.08 22.5H81.85L72.163 4.822 62.259 22.5h-3.374zm-35.701 0L35.374 0h2.069l12.082 22.5H46.15L36.463 4.822 26.559 22.5h-3.375zM67.592 0l-12.19 22.5h-2.177L41.143 0h3.483l9.687 17.68L64.108 0h3.484zM6.096 28.5C5.769 29.464 4.79 30 3.81 30c-1.415 0-2.612-1.18-2.612-2.573s1.197-2.57 2.612-2.57c.98 0 1.96.535 2.395 1.5h-1.09a1.72 1.72 0 0 0-1.306-.643c-.98 0-1.632.75-1.632 1.712 0 .86.762 1.715 1.633 1.715.435 0 .87-.213 1.197-.643h1.089v.002zm16.544-1.072c0 1.393-1.197 2.572-2.613 2.572-1.415 0-2.612-1.179-2.612-2.572s1.197-2.57 2.612-2.57c1.416 0 2.613 1.177 2.613 2.57zm-4.245 0c0 .859.762 1.715 1.632 1.715.98 0 1.742-.857 1.742-1.715 0-.964-.762-1.713-1.742-1.713-.979 0-1.632.75-1.632 1.713zm15.891-2.463h1.524c.436 0 .87 0 1.306.32.327.323.544.75.544 1.18 0 .428-.217.856-.435 1.07-.217.322-.544.429-.87.535l1.305 1.822h-1.088l-1.306-1.928v1.928h-.98v-4.927zm1.415 2.356c.327 0 .653-.107.762-.214.217-.213.217-.32.217-.536 0-.214 0-.43-.217-.536-.218-.214-.435-.214-.654-.214h-.543v1.5h.435zm13.497 2.571v-4.928h1.197c.435 0 .87 0 1.306.214.435.322.653.75.653 1.285 0 .43-.217.964-.544 1.286-.435.32-.98.214-1.524.214h-.217v1.928h-.871v.001zm1.088-2.785h.653c.327-.107.544-.32.544-.643 0-.322-.217-.536-.544-.643h-.87v1.286h.217zm18.612.321c0 1.393-1.198 2.572-2.612 2.572-1.416 0-2.613-1.179-2.613-2.572s1.088-2.57 2.613-2.57c1.415 0 2.612 1.177 2.612 2.57zm-4.353 0c0 .859.762 1.715 1.742 1.715.87 0 1.632-.857 1.632-1.715 0-.964-.762-1.713-1.632-1.713a1.743 1.743 0 0 0-1.239.495 1.691 1.691 0 0 0-.503 1.218zm15.999-2.463h1.416c.543 0 .98 0 1.304.32.437.323.654.75.654 1.18 0 .428-.218.856-.435 1.07-.219.322-.544.429-.87.535l1.304 1.822H82.83l-1.415-1.928v1.928h-.872v-4.927zm1.416 2.356c.217 0 .543-.107.762-.214.109-.213.217-.32.217-.536a.815.815 0 0 0-.217-.536c-.219-.214-.436-.214-.762-.214h-.545v1.5h.545zm15.128-2.356h.762l2.068 4.928h-.98l-.544-1.285h-1.85l-.545 1.285h-.98l2.069-4.928zm.87 2.785l-.543-1.5-.544 1.5h1.088zm13.933-1.929h-.979v-.856h2.83v.856h-.981v4.071h-.87v-4.07zm13.17-.856h.979v4.927h-.979v-4.927zm17.849 2.463c0 1.393-1.197 2.572-2.612 2.572-1.416 0-2.613-1.179-2.613-2.572s1.197-2.57 2.613-2.57c1.415 0 2.612 1.177 2.612 2.57zm-4.352 0c0 .859.762 1.715 1.74 1.715.873 0 1.634-.857 1.634-1.715 0-.964-.653-1.713-1.634-1.713a1.739 1.739 0 0 0-1.237.495 1.675 1.675 0 0 0-.503 1.218zm16-2.463h1.087l2.068 3.535v-3.535h.872v4.927h-.98l-2.068-3.642v3.642h-.979v-4.927z" fill="#132342"/></svg>