<svg width="177" height="43" viewBox="0 0 177 43" fill="none" xmlns="http://www.w3.org/2000/svg"><path fill-rule="evenodd" clip-rule="evenodd" d="M57.887 11.712c-.742-.692-1.855-1.123-2.968-1.123-.742 0-1.855.475-1.855 1.425 0 .994 1.114 1.383 1.855 1.643l1.3.346c2.411.734 4.266 1.945 4.266 4.754 0 1.684-.371 3.456-1.855 4.624-1.3 1.167-3.154 1.642-4.824 1.642-2.227 0-4.453-.734-6.123-1.988l1.855-3.587c1.114.95 2.413 1.772 4.082 1.772.928 0 2.041-.518 2.041-1.729 0-1.297-1.669-1.728-2.597-1.988-2.968-.822-4.824-1.556-4.824-4.884 0-3.5 2.598-5.791 6.123-5.791 1.669 0 3.896.52 5.38 1.426l-1.856 3.458zm8.349 2.55c1.114-1.297 2.226-1.858 3.71-1.858 1.67 0 3.154.691 4.082 2.247.742-1.47 2.412-2.247 4.081-2.247 2.97 0 3.896 1.945 3.896 4.668v7.476h-4.081V18.93c0-1.21 0-3.198-1.856-3.198-1.855 0-1.855 1.815-1.855 3.198v5.618h-4.268V18.93c0-1.297 0-3.284-1.856-3.284-1.855 0-1.855 1.988-1.855 3.284v5.618h-4.267V12.792h4.267v1.47h.002zM96.85 24.547h-4.268V23.25c-.741 1.167-2.226 1.685-3.525 1.685-3.525 0-5.937-2.896-5.937-6.265 0-3.371 2.413-6.267 5.752-6.267 1.484 0 2.969.518 3.71 1.555V12.79h4.269v11.756zm-9.463-5.835c0 1.47.927 2.637 2.597 2.637 1.856 0 2.783-1.168 2.783-2.637 0-1.47-.927-2.679-2.783-2.679-1.669 0-2.597 1.21-2.597 2.68zm15.4-3.975h.185c.743-1.469 2.226-2.118 3.71-2.118h.928v4.02c-.555-.304-1.114-.39-1.857-.39-2.226 0-2.966 1.556-2.966 3.587v4.71h-4.083V12.793h4.083v1.945zm11.318 9.81h-4.268v-8.298h-1.299v-3.457h1.299V9.248h4.268v3.544h2.412v3.457h-2.412v8.298zm3.896 0V7.26h6.306c3.155 0 5.197 1.21 5.197 4.495 0 1.555-.558 2.852-1.857 3.544v.044c2.412.346 3.526 1.988 3.526 4.407 0 3.63-3.153 4.798-6.307 4.798h-6.865v-.001zm4.452-10.502h.555c1.114 0 2.412-.173 2.412-1.642 0-1.599-1.483-1.685-2.597-1.685h-.371v3.327h.001zm0 7.087h.555c1.298 0 3.526.043 3.526-1.858 0-2.074-2.227-1.858-3.71-1.858h-.371v3.716zm23.192-1.771h-8.906c0 1.729.928 2.636 2.597 2.636.928 0 1.486-.302 2.042-1.08h4.083c-.743 2.766-3.34 4.019-6.124 4.019-3.895 0-6.863-2.161-6.863-6.222 0-3.934 2.782-6.31 6.678-6.31 4.082 0 6.494 2.55 6.494 6.526v.43h-.001zm-3.895-2.378c-.373-1.123-1.3-1.857-2.414-1.857-1.298 0-2.226.649-2.597 1.857h5.011zm18.738 7.564h-4.268V23.25c-.743 1.167-2.226 1.685-3.71 1.685-3.34 0-5.937-2.896-5.937-6.265 0-3.371 2.412-6.267 5.937-6.267 1.298 0 2.783.518 3.71 1.555V12.79h4.268v11.756zm-9.461-5.835c0 1.47.926 2.637 2.597 2.637 1.669 0 2.782-1.168 2.782-2.637 0-1.47-1.113-2.679-2.782-2.679-1.672 0-2.597 1.21-2.597 2.68zm20.964 4.538c-.742 1.167-2.226 1.685-3.525 1.685-3.525 0-5.939-2.896-5.939-6.265 0-3.371 2.414-6.267 5.939-6.267 1.298 0 2.783.518 3.525 1.555V5.53h4.266v19.016h-4.266V23.25zm-5.196-4.538c0 1.47.928 2.637 2.785 2.637 1.669 0 2.597-1.168 2.597-2.637 0-1.47-.928-2.679-2.597-2.679-1.857 0-2.785 1.21-2.785 2.68zM51.209 36.042h-1.485v-4.321H48.61v-1.253h3.897v1.253h-1.298v4.321zm8.72-4.321v.907h1.669v1.21h-1.67v.995h1.67v1.21h-3.154v-5.575h3.154v1.253h-1.67zm12.059.604c-.186-.388-.743-.604-1.3-.604-.742 0-1.484.691-1.484 1.555s.742 1.511 1.67 1.511c.37 0 .928-.215 1.114-.604v1.728c-.371.173-.743.26-1.3.26a3.033 3.033 0 0 1-2.04-.821c-.557-.519-.927-1.253-.927-2.075 0-.778.37-1.512.927-2.032.556-.562 1.298-.907 2.04-.907.557 0 .929.086 1.3.26v1.73zm10.947.303v-2.16h1.483v5.574h-1.484v-2.29h-2.04v2.29h-1.485v-5.574h1.485v2.16h2.04zm8.906-2.16h1.484l2.597 3.414v-3.414h1.484v5.574h-1.484l-2.597-3.414v3.414h-1.484v-5.574zm18.924 2.679c0 1.814-1.298 3.068-3.154 3.068-1.856 0-3.155-1.253-3.155-3.068 0-1.685 1.486-2.853 3.155-2.853 1.67.001 3.154 1.168 3.154 2.853zm-4.639 0c0 .993.556 1.684 1.484 1.684.928 0 1.671-.69 1.671-1.684 0-.735-.743-1.47-1.671-1.47s-1.484.735-1.484 1.47zm13.173 1.686h1.671v1.21h-3.155v-5.575h1.484v4.365zm14.657-1.686c0 1.814-1.298 3.068-3.154 3.068-1.857 0-3.155-1.253-3.155-3.068 0-1.685 1.486-2.853 3.155-2.853 1.671.001 3.154 1.168 3.154 2.853zm-4.823 0c0 .993.741 1.684 1.669 1.684s1.483-.69 1.483-1.684c0-.735-.555-1.47-1.483-1.47s-1.669.735-1.669 1.47zm17.44-.217c0 .82 0 1.512-.557 2.205-.555.734-1.298 1.08-2.226 1.08-1.855 0-3.153-1.166-3.153-2.94 0-1.813 1.298-2.981 3.153-2.981 1.113 0 2.041.518 2.411 1.555l-1.298.562c-.185-.52-.555-.864-1.298-.864-.928 0-1.298.907-1.298 1.728 0 .864.371 1.772 1.484 1.772.557 0 1.113-.347 1.113-.994h-1.298v-1.124h2.967v.001zm7.05-2.462h1.484v5.574h-1.484v-5.574zm10.39 1.253v.907h1.669v1.21h-1.669v.995h1.669v1.21h-3.154v-5.575h3.154v1.253h-1.669zm12.244.172c-.37-.215-.74-.345-1.113-.345-.186 0-.555.13-.555.475 0 .302.37.432.555.518l.373.087c.928.258 1.483.648 1.483 1.555 0 .518-.185 1.08-.555 1.469a2.808 2.808 0 0 1-1.671.518c-.743 0-1.298-.215-1.857-.604l.558-1.167c.371.302.743.562 1.298.562.371 0 .743-.174.743-.562 0-.389-.558-.562-.929-.648-.928-.26-1.483-.475-1.483-1.555 0-1.124.741-1.858 1.854-1.858.558 0 1.298.173 1.857.432l-.558 1.123zM42.302 0H0v43h42.302V0zM25.79 3.544c-.743-.777-2.04-.734-2.968.13l-.556.606-5.01 5.012a.752.752 0 0 0-.174.175.505.505 0 0 1-.197.172l-7.793 7.865a.424.424 0 0 0-.202.106.698.698 0 0 1-.168.11l-.557.605v-.044l-5.01 5.057c-.928.864-.928 2.204-.185 3.025.556.605 1.484.734 2.226.39.372-.044.558-.131.743-.303L25.976 6.44c0-.06.04-.13.083-.204.05-.085.103-.178.103-.27.37-.823.37-1.774-.372-2.422zm12.802.908c.928.777.742 2.117 0 2.981L6.495 39.37c-.928.864-2.227.95-3.154.13-.743-.778-.743-2.162.186-3.025L35.623 4.538c.929-.865 2.227-.908 2.969-.086zm-.557 26.06c-.742-.822-2.04-.78-2.968.085l-.556.606-5.01 5.055c-.927.864-.927 2.205-.186 2.982.743.822 2.227.777 2.968-.086l2.599-2.593v.043l3.153-3.112c.742-.863.928-2.203 0-2.98zM12.246 4.58c-.928-.778-2.226-.735-3.154.13l-.557.605v-.043L3.527 10.33c-.928.864-.928 2.205-.186 3.026.927.777 2.226.734 3.154-.13l2.412-2.55 3.155-3.068c.926-.865.926-2.205.184-3.026zm26.717 12.49c-.742-.778-2.04-.735-2.969.13l-.556.605-5.01 5.014c-.038.027-.076.051-.112.075-.142.092-.259.168-.259.27l-7.792 7.866a.425.425 0 0 0-.203.106.695.695 0 0 1-.168.11l-.556.561-5.01 5.056c-.927.864-.927 2.204-.186 3.026.558.56 1.485.69 2.227.345.372-.043.557-.13.557-.26l20.223-20.008c0-.06.04-.13.083-.204.049-.086.102-.18.102-.272.371-.821.371-1.772-.37-2.42z" fill="#132342"/></svg>