<svg width="254" height="26" viewBox="0 0 254 26" fill="none" xmlns="http://www.w3.org/2000/svg"><path fill-rule="evenodd" clip-rule="evenodd" d="M10.32 2.567H6.902v7.482H3.43V2.567H0V.41h10.32v2.156zm6.737-.368c.519 0 .779.068 1.024.15.465.163.78.423.93.545.34.328.874 1.092.874 2.32 0 1.093-.438 2.322-1.517 2.8-.52.232-1.135.232-1.298.232-.588 0-2.145-.123-2.719-1.842a3.645 3.645 0 0 1-.192-1.174c0-1.173.519-2.334 1.655-2.812.422-.179.792-.22 1.243-.22zM16.852.056c-2.16.028-3.336.519-4.155 1.079-.792.531-2.09 1.747-2.09 4.178 0 .615.04 1.87 1.065 3.112.478.573.957.888 1.217 1.038.779.463 2.022.915 4.073.915 1.365 0 2.212-.164 2.773-.327a5.331 5.331 0 0 0 1.57-.738C23.262 7.989 23.44 6.05 23.44 5.19a5.171 5.171 0 0 0-.874-2.922c-.67-.956-1.859-1.952-4.416-2.17a19.514 19.514 0 0 0-1.297-.042zm13.037.355l2.434 6.293L34.755.411h4.564v9.638h-3.403V3.88l-2.282 6.17H30.97L28.7 3.906v6.143h-3.39V.411h4.58zm20.391 2.17h3.444c.315.015.629.042.82.342a.901.901 0 0 1 .11.41.928.928 0 0 1-.096.383c-.218.395-.724.368-1.08.368H50.28V2.581zM46.796.411v9.638h7.421c1.23-.042 2.788-.095 3.677-1.16.38-.476.579-1.071.56-1.68 0-.71-.137-1.296-.712-1.774-.478-.408-1.025-.505-1.626-.6.78-.19 1.217-.56 1.435-.833.396-.506.41-1.119.41-1.338a2.44 2.44 0 0 0-.327-1.242C57.045.479 55.87.426 54.899.412h-8.103zm3.457 5.76h3.895c.232.015.874.015.874.793 0 .438-.22.75-.656.846-.18.04-.45.04-.478.04H50.25V6.173h.002zm20.446-3.604h-6.724v1.585h6.218v2.17h-6.218v1.543h6.847v2.184H60.517V.411h10.182v2.156zM76.289.41v3.507h4.209V.411h3.5v9.638h-3.5v-3.7h-4.223v3.7h-3.472V.411h3.486zM90.01 2.594h2.87c.369.015.752.055.985.396a.865.865 0 0 1 .15.49.844.844 0 0 1-.19.546c-.22.26-.562.328-1.218.341H90.01V2.594zM86.537.411v9.638h3.472V6.54h1.832l1.996 3.51h3.813L95.243 6.2c.493-.123.671-.19.902-.328 1.217-.668 1.313-1.953 1.313-2.403 0-.874-.301-1.447-.492-1.734C96.2.505 94.943.423 93.646.41h-7.109v.001zm23.072 2.156h-6.724v1.585h6.218v2.17h-6.218v1.543h6.847v2.184H99.426V.411h10.183v2.156zM114.61.41l2.966 3.249c.313.355.643.697.929 1.052.273.315.533.641.779.97a59.092 59.092 0 0 1-.068-1.735V.41h3.402v9.638h-2.87l-3.541-3.986a30.401 30.401 0 0 1-1.093-1.325c.028 1.093.042 2.186.055 3.264v2.047h-3.414V.411h2.855zm16.633 2.595c-.042-.11-.068-.22-.124-.315-.217-.368-.708-.588-1.584-.588-.056 0-.889-.013-1.298.328a.593.593 0 0 0-.22.463c0 .11.029.288.22.438.477.382 2.185.613 3.907 1.01 1.107.26 1.628.546 1.996.943.245.246.643.75.643 1.652 0 .655-.232 1.324-.643 1.829-.805 1.01-2.257 1.57-4.893 1.57-2.269 0-3.552-.532-4.265-1.338-.656-.723-.724-1.475-.779-1.83l3.403-.083c.028.164.095.423.437.669.329.245.808.423 1.709.423.355 0 .793-.028 1.12-.205.287-.136.548-.423.548-.764 0-.218-.096-.505-.548-.696-.231-.095-.808-.205-1.476-.327-.751-.15-1.516-.273-2.269-.478-.819-.233-1.571-.519-2.064-1.27a2.434 2.434 0 0 1-.383-1.338c0-.52.151-.996.424-1.42.63-1.01 1.968-1.679 4.441-1.679.85 0 2.201.11 3.009.383.341.11.655.272.942.492.915.668 1.054 1.516 1.12 1.939l-3.373.192zm18.273 3.67c.287-.312.397-.517.575-.9l2.458.34c-.085.194-.176.385-.273.574-.438.833-1.093 1.379-1.324 1.583l1.665 1.775h-3.429l-.438-.465c-.534.218-1.324.573-2.68.683a9.082 9.082 0 0 1-.874.042c-.217 0-.847-.015-1.487-.18-.427-.095-2.572-.68-2.586-2.715 0-.273.029-.792.423-1.351.616-.848 1.668-1.133 2.586-1.42-.166-.219-.59-.697-.59-1.49 0-.232.042-.422.071-.504a2.033 2.033 0 0 1 1.064-1.297c.494-.245 1.285-.45 2.558-.45.192 0 .779 0 1.353.11 1.721.355 2.131 1.35 2.131 2.156 0 .546-.203 1.079-.601 1.447-.601.547-1.655.807-1.789.846l1.187 1.217zm-2.035-2.77c.559-.206.722-.464.722-.778 0-.287-.189-.724-.861-.724-.601 0-.805.37-.805.63 0 .177.095.422.341.737.11.123.192.19.246.232a4.68 4.68 0 0 0 .357-.097zm-2.025 2.17c-.519.165-1.161.423-1.161 1.08a.96.96 0 0 0 .164.546c.192.315.654.615 1.462.615.328 0 .723-.04 1.395-.246l-1.86-1.995zm17.276-3.482h2.515c.409.015.833.04 1.067.45.039.083.121.246.121.491 0 .45-.246.779-.669.888-.192.055-.384.055-.779.055h-2.256V2.594h.001zM159.288.411v9.638h3.444v-3.4h2.612c1.054-.014 2.39-.014 3.32-.64 1.176-.779 1.231-2.062 1.231-2.527 0-.806-.192-1.296-.341-1.611-.545-1.093-1.516-1.353-2.651-1.434-.328-.013-.669-.027-.998-.027h-6.617v.001zm15.895 2.676l1.135 3.262h-2.242l1.107-3.262zM173.202.41l-4.17 9.638h3.8l.519-1.569h3.689l.519 1.57h3.761L177.136.41h-3.934zm12.711 2.183h2.867c.37.015.753.055.986.396a.881.881 0 0 1-.039 1.036c-.22.26-.562.328-1.217.341h-2.597V2.594zM182.44.411v9.638h3.471V6.54h1.833l1.993 3.51h3.814l-2.405-3.85c.491-.123.669-.19.903-.328 1.217-.668 1.313-1.953 1.313-2.403 0-.874-.302-1.447-.495-1.734-.764-1.229-2.02-1.311-3.319-1.324h-7.108v.001zm21.921 2.156h-3.415v7.482h-3.471V2.567h-3.43V.41h10.316v2.156zM208.517.41l2.967 3.249c.313.355.64.697.929 1.052.273.315.533.641.779.97a48.443 48.443 0 0 1-.068-1.735V.41h3.402v9.638h-2.87l-3.54-3.986a31.842 31.842 0 0 1-1.092-1.325c.029 1.093.042 2.186.053 3.264v2.047h-3.415V.411h2.855zm20.748 2.156h-6.728v1.585h6.219v2.17h-6.219v1.543h6.849v2.184H219.08V.411h10.185v2.156zm5.574.027h2.87c.367.015.752.055.983.396a.852.852 0 0 1 .15.49.834.834 0 0 1-.189.546c-.22.26-.562.328-1.217.341h-2.597V2.594zM231.367.411v9.638h3.472V6.54h1.832l1.996 3.51h3.811l-2.404-3.85c.494-.123.672-.19.903-.328 1.217-.668 1.312-1.953 1.312-2.403 0-.874-.302-1.447-.491-1.734-.768-1.23-2.024-1.312-3.323-1.325h-7.108v.001zm19.094 2.595c-.042-.11-.068-.22-.122-.315-.22-.368-.711-.588-1.587-.588-.056 0-.889-.013-1.298.328a.59.59 0 0 0-.219.463c0 .11.029.288.219.438.477.382 2.186.613 3.907 1.01 1.11.26 1.629.546 1.996.943.248.246.643.75.643 1.652a2.94 2.94 0 0 1-.643 1.829c-.805 1.01-2.253 1.57-4.892 1.57-2.269 0-3.554-.532-4.265-1.338-.655-.723-.723-1.475-.776-1.83l3.402-.083c.029.164.095.423.438.669.328.245.808.423 1.708.423.355 0 .793-.028 1.12-.205.288-.136.548-.423.548-.764 0-.218-.096-.505-.548-.696-.231-.095-.805-.205-1.476-.327-.751-.15-1.516-.273-2.266-.478-.821-.233-1.572-.519-2.066-1.27a2.452 2.452 0 0 1-.382-1.338c0-.52.15-.996.423-1.42C244.956.669 246.292 0 248.768 0c.847 0 2.198.11 3.006.383.341.11.655.272.943.492.914.668 1.053 1.516 1.12 1.939l-3.376.192zM5.57 21.629c-.463.556-.928.964-1.398 1.227a3 3 0 0 1-1.49.391c-.63 0-1.12-.177-1.472-.532-.353-.356-.53-.835-.53-1.436 0-.682.19-1.354.57-2.01.38-.66.889-1.196 1.53-1.607.64-.412 1.268-.618 1.885-.618.483 0 .844.1 1.084.302a.938.938 0 0 1 .36.742 1.05 1.05 0 0 1-.253.704.573.573 0 0 1-.643.194.448.448 0 0 1-.294-.433.57.57 0 0 1 .048-.234.987.987 0 0 1 .208-.255c.106-.1.168-.171.19-.213a.313.313 0 0 0 .033-.142.276.276 0 0 0-.127-.23.97.97 0 0 0-.548-.133c-.436 0-.869.151-1.295.459-.426.307-.792.745-1.094 1.308-.364.685-.546 1.37-.546 2.055 0 .454.128.812.387 1.077.257.266.61.397 1.054.397a2.26 2.26 0 0 0 1.019-.257c.335-.171.712-.482 1.131-.93l.191.174zm7.102-2.496c0 .668-.178 1.33-.532 1.985a4.006 4.006 0 0 1-1.48 1.553c-.633.384-1.247.575-1.844.575-.61 0-1.109-.195-1.493-.583-.384-.389-.577-.894-.577-1.515 0-.654.188-1.31.565-1.968a4.28 4.28 0 0 1 1.51-1.564c.63-.382 1.24-.572 1.826-.572.588 0 1.072.195 1.454.58.38.387.57.89.57 1.509zm-1.103-.468c0-.414-.102-.733-.305-.953a1.016 1.016 0 0 0-.783-.33c-.655 0-1.257.467-1.807 1.407-.55.936-.825 1.87-.825 2.798 0 .423.107.75.32.979.215.23.484.343.809.343.627 0 1.217-.464 1.766-1.398.55-.937.825-1.884.825-2.846zm2.318-1.249l2.278-.372-.936 3.24c.783-1.329 1.494-2.258 2.133-2.79.361-.301.657-.45.886-.45.147 0 .264.042.348.13.085.085.127.21.127.372 0 .293-.075.57-.227.835-.107.2-.261.299-.46.299a.38.38 0 0 1-.264-.099.48.48 0 0 1-.137-.304c-.009-.085-.029-.142-.06-.166a.17.17 0 0 0-.127-.054.444.444 0 0 0-.213.054c-.116.062-.292.236-.526.52a14.71 14.71 0 0 0-1.201 1.704 5.126 5.126 0 0 0-.482.995c-.116.303-.223.61-.32.92l-.214.837h-1.02l1.197-4.142c.143-.482.214-.826.214-1.032a.247.247 0 0 0-.1-.2.517.517 0 0 0-.335-.108c-.087 0-.246.02-.477.06l-.084-.249zm7.637-.372l-.447 1.542c.483-.572.915-.973 1.294-1.201a2.216 2.216 0 0 1 1.16-.341c.395 0 .732.154 1.01.47.28.314.42.722.42 1.225 0 .981-.396 1.976-1.192 2.988-.794 1.012-1.72 1.52-2.777 1.52a2.24 2.24 0 0 1-.59-.073 2.532 2.532 0 0 1-.576-.257l-.497 1.716c-.097.335-.146.553-.146.654a.418.418 0 0 0 .076.251.48.48 0 0 0 .25.158c.116.036.346.056.688.056l-.06.248h-3.142l.066-.248c.413-.017.692-.088.838-.21.145-.125.297-.469.457-1.03l1.692-5.854c.103-.373.154-.604.154-.693a.373.373 0 0 0-.103-.282c-.07-.067-.173-.1-.315-.1-.127 0-.306.017-.536.047v-.248l2.276-.338zm-1.544 5.34c.278.328.652.49 1.123.49.233 0 .472-.064.713-.194s.478-.32.71-.572c.23-.254.438-.544.621-.876.184-.33.348-.72.494-1.17a4.29 4.29 0 0 0 .219-1.332c0-.355-.083-.63-.247-.817-.165-.188-.357-.282-.579-.282-.487 0-.968.276-1.443.83a5.093 5.093 0 0 0-1.034 1.934l-.576 1.989zm11.678-3.251c0 .668-.178 1.33-.532 1.985a4.012 4.012 0 0 1-1.478 1.553c-.633.384-1.247.575-1.844.575-.61 0-1.109-.195-1.493-.583-.385-.389-.578-.894-.578-1.515 0-.654.188-1.31.565-1.968a4.3 4.3 0 0 1 1.509-1.564c.631-.382 1.24-.572 1.828-.572.588 0 1.072.195 1.454.58.378.387.57.89.57 1.509zm-1.103-.468c0-.414-.1-.733-.303-.953a1.018 1.018 0 0 0-.783-.33c-.655 0-1.258.467-1.807 1.407-.55.936-.824 1.87-.824 2.798 0 .423.107.75.32.979.214.23.484.343.809.343.627 0 1.216-.464 1.766-1.398.548-.937.822-1.884.822-2.846zm2.319-1.249l2.277-.372-.936 3.24c.782-1.329 1.494-2.258 2.133-2.79.361-.301.658-.45.886-.45a.46.46 0 0 1 .348.13c.085.085.127.21.127.372 0 .293-.075.57-.227.835-.106.2-.26.299-.46.299a.386.386 0 0 1-.264-.099.488.488 0 0 1-.137-.304c-.009-.085-.029-.142-.06-.166a.172.172 0 0 0-.128-.054.435.435 0 0 0-.212.054c-.116.062-.292.236-.526.52a14.358 14.358 0 0 0-1.201 1.704 5.12 5.12 0 0 0-.481.995c-.187.511-.294.814-.321.92l-.214.837H32.46l1.197-4.142c.143-.482.214-.826.214-1.032a.248.248 0 0 0-.1-.2.517.517 0 0 0-.335-.108c-.087 0-.246.02-.477.06l-.085-.249zm11.391-.265l-1.296 4.523-.15.606a.594.594 0 0 0-.022.141c0 .063.016.119.047.166.026.037.058.054.096.054.04 0 .095-.03.162-.095.124-.119.29-.381.497-.784l.227.16c-.26.449-.53.781-.804.997-.276.217-.53.328-.764.328-.164 0-.29-.047-.378-.144-.088-.097-.133-.234-.133-.417 0-.217.05-.503.148-.86l.146-.497c-.643.758-1.233 1.289-1.773 1.59-.388.217-.768.328-1.14.328a1.26 1.26 0 0 1-.929-.397c-.26-.265-.39-.63-.39-1.091 0-.696.23-1.43.691-2.202a5.621 5.621 0 0 1 1.756-1.855c.555-.367 1.078-.55 1.571-.55a1.3 1.3 0 0 1 .736.195c.195.13.344.344.445.642l.218-.68 1.04-.158zm-2.46.335c-.31 0-.64.132-.99.39-.494.373-.935.923-1.32 1.65-.385.729-.579 1.388-.579 1.977 0 .296.087.53.258.702a.81.81 0 0 0 .59.26c.548 0 1.147-.352 1.793-1.054.786-.933 1.167-1.89 1.141-2.87 0-.372-.079-.64-.24-.804a.865.865 0 0 0-.653-.251zm6.226-2.078l-.539 1.796h.894l-.107.426h-.914l-1.215 3.931c-.15.446-.223.736-.223.866 0 .074.016.13.048.166a.14.14 0 0 0 .114.056c.098 0 .228-.073.392-.222.095-.088.307-.36.636-.817l.22.166c-.387.586-.754.998-1.096 1.23a1.258 1.258 0 0 1-.713.243.607.607 0 0 1-.454-.184.645.645 0 0 1-.176-.47c0-.24.074-.607.224-1.1l1.168-3.864h-1.018l.067-.265c.49-.136.905-.332 1.246-.595.34-.263.725-.719 1.154-1.361h.292v-.002zm1.658 5.154c-.02.183-.032.366-.035.55 0 .394.142.73.427 1.006a1.42 1.42 0 0 0 1.035.418c.325 0 .636-.066.936-.198.3-.13.746-.418 1.337-.867l.139.192c-1.054 1.054-2.06 1.583-3.017 1.583-.648 0-1.138-.207-1.468-.615a2.108 2.108 0 0 1-.494-1.354c0-.666.205-1.346.614-2.039.408-.693.922-1.234 1.54-1.618.616-.387 1.252-.578 1.905-.578.472 0 .82.096 1.048.285a.868.868 0 0 1 .34.683c0 .37-.149.721-.447 1.06-.391.437-.968.795-1.73 1.065-.505.182-1.214.326-2.13.427zm.048-.32c.672-.074 1.22-.204 1.642-.387.558-.243.977-.536 1.256-.877.279-.338.419-.662.419-.97a.602.602 0 0 0-.181-.453c-.12-.116-.292-.172-.513-.172-.462 0-.954.24-1.474.722-.522.48-.904 1.194-1.15 2.136zm13.15 1.387c-.46.556-.928.964-1.397 1.227-.47.263-.967.391-1.49.391-.63 0-1.12-.177-1.473-.532-.353-.356-.53-.835-.53-1.436 0-.682.19-1.354.57-2.01a4.614 4.614 0 0 1 1.53-1.607c.64-.412 1.27-.618 1.885-.618.483 0 .845.1 1.084.302a.938.938 0 0 1 .36.742 1.04 1.04 0 0 1-.253.704.574.574 0 0 1-.645.194.473.473 0 0 1-.26-.253.552.552 0 0 1 .016-.414.989.989 0 0 1 .207-.255c.106-.1.168-.171.19-.213a.313.313 0 0 0 .033-.142c0-.092-.044-.168-.127-.23a.969.969 0 0 0-.548-.133c-.435 0-.869.151-1.295.459-.426.307-.792.745-1.094 1.308-.366.685-.548 1.37-.548 2.055 0 .454.129.812.387 1.077.258.266.61.397 1.055.397a2.26 2.26 0 0 0 1.02-.257c.335-.171.713-.482 1.13-.93l.193.174zm7.104-2.496c0 .668-.178 1.33-.532 1.985a4.012 4.012 0 0 1-1.479 1.553c-.633.384-1.247.575-1.844.575-.61 0-1.108-.195-1.493-.583-.386-.39-.578-.894-.578-1.515 0-.654.188-1.31.565-1.968.36-.642.88-1.181 1.509-1.564.63-.382 1.24-.572 1.828-.572.588 0 1.071.195 1.453.58.38.387.57.89.57 1.509zm-1.105-.468c0-.414-.1-.733-.303-.953a1.019 1.019 0 0 0-.783-.33c-.655 0-1.258.467-1.807 1.407-.55.936-.824 1.87-.824 2.798 0 .423.106.75.321.979.213.23.483.343.808.343.627 0 1.217-.464 1.766-1.398.548-.937.822-1.884.822-2.846zm4.596-1.621l-.865 3.026c.394-.71.73-1.246 1.008-1.604.433-.553.853-.956 1.262-1.207.241-.144.493-.214.757-.214.227 0 .417.074.567.223a.776.776 0 0 1 .225.574c0 .214-.055.494-.164.843l-.51 1.672c.765-1.358 1.492-2.313 2.18-2.858.382-.305.758-.454 1.13-.454.217 0 .394.077.534.231.139.155.208.394.208.722 0 .254-.046.524-.136.81l-.835 2.563c-.18.558-.273.866-.273.928 0 .062.018.112.055.154.024.03.056.045.096.045s.112-.039.211-.121a3.21 3.21 0 0 0 .648-.773l.22.142c-.169.258-.36.5-.57.725-.272.304-.504.51-.695.617a1.119 1.119 0 0 1-.533.16.5.5 0 0 1-.378-.16.553.553 0 0 1-.15-.39c0-.215.106-.643.317-1.29l.702-2.142c.16-.491.244-.767.256-.82.015-.081.023-.163.023-.246a.382.382 0 0 0-.08-.26.251.251 0 0 0-.195-.092c-.202 0-.417.092-.643.284-.665.568-1.287 1.356-1.864 2.377-.382.67-.737 1.531-1.07 2.58h-1.016l1.22-4.021c.133-.435.201-.725.201-.872 0-.119-.026-.207-.077-.266a.238.238 0 0 0-.183-.085.893.893 0 0 0-.478.158c-.274.171-.625.54-1.056 1.111a8.889 8.889 0 0 0-.998 1.627c-.114.245-.386 1.026-.813 2.346h-.98l1.25-4.325.163-.562a.644.644 0 0 0 .046-.186.34.34 0 0 0-.135-.26.51.51 0 0 0-.342-.115c-.06 0-.22.026-.484.079l-.046-.248 2.29-.426zm9.87 0l-.866 3.026c.395-.71.731-1.246 1.009-1.604.432-.553.853-.956 1.262-1.207.241-.144.494-.214.757-.214.227 0 .416.074.567.223a.779.779 0 0 1 .225.574c0 .214-.055.494-.165.843l-.51 1.672c.766-1.358 1.493-2.313 2.181-2.858.382-.305.757-.454 1.13-.454.217 0 .393.077.533.231.14.155.21.394.21.722 0 .254-.046.524-.137.81l-.834 2.563c-.182.558-.273.866-.273.928a.22.22 0 0 0 .055.154.115.115 0 0 0 .095.045c.04 0 .111-.039.211-.121.23-.195.445-.45.646-.773l.22.142c-.107.177-.297.42-.568.725-.272.304-.505.51-.697.617a1.115 1.115 0 0 1-.533.16.499.499 0 0 1-.376-.16.553.553 0 0 1-.15-.39c0-.215.105-.643.316-1.29l.703-2.142c.16-.491.244-.767.255-.82.015-.081.023-.164.023-.246a.389.389 0 0 0-.079-.26.253.253 0 0 0-.195-.092c-.202 0-.416.092-.643.284-.665.568-1.288 1.356-1.865 2.377-.381.67-.737 1.531-1.07 2.58h-1.01l1.218-4.021c.133-.435.2-.725.2-.872 0-.119-.027-.207-.076-.266a.234.234 0 0 0-.184-.085.894.894 0 0 0-.478.158c-.273.171-.624.54-1.055 1.111a8.908 8.908 0 0 0-1 1.627c-.114.245-.386 1.026-.812 2.346h-.98l1.25-4.325.163-.562a.644.644 0 0 0 .046-.186.338.338 0 0 0-.134-.26.51.51 0 0 0-.343-.115c-.059 0-.22.026-.484.079l-.046-.248 2.288-.426zm13.506.16l-1.221 4.04c-.183.601-.274.983-.274 1.14 0 .073.012.127.034.163.023.033.052.05.09.05.057 0 .122-.03.192-.095.069-.062.247-.332.531-.811l.2.154c-.31.539-.626.929-.95 1.171-.177.14-.394.22-.62.231a.463.463 0 0 1-.362-.147.546.546 0 0 1-.135-.381c0-.15.03-.35.088-.6.075-.302.286-1.007.633-2.11-.787 1.237-1.446 2.086-1.975 2.547-.53.459-1.02.691-1.466.691a.731.731 0 0 1-.533-.213.718.718 0 0 1-.218-.539c0-.335.118-.846.352-1.536l.695-2.064c.17-.494.256-.802.256-.923a.172.172 0 0 0-.068-.136.225.225 0 0 0-.149-.059.637.637 0 0 0-.335.101c-.113.068-.366.314-.76.742l-.207-.147c.364-.515.75-.896 1.158-1.142.31-.192.598-.287.86-.287.179 0 .326.065.44.192a.717.717 0 0 1 .171.494c0 .236-.104.66-.312 1.269l-.736 2.123c-.205.578-.306.944-.306 1.097 0 .088.029.152.088.207.058.05.136.076.233.076.151 0 .351-.073.597-.22.245-.146.572-.473.982-.978.37-.45.709-.924 1.014-1.42.267-.444.547-1.148.844-2.113l.161-.564h1.008v-.003zm3.214-.16l-.885 3.065c.898-1.255 1.585-2.078 2.061-2.473.477-.394.936-.592 1.378-.592a.792.792 0 0 1 .594.242.89.89 0 0 1 .234.637c0 .266-.074.618-.22 1.057l-.92 2.783c-.106.32-.158.515-.158.586 0 .06.016.11.048.15.032.042.065.063.102.063.048 0 .106-.03.174-.086.211-.183.444-.464.696-.846l.207.127c-.396.584-.772.995-1.124 1.238-.247.166-.469.25-.665.25a.497.497 0 0 1-.377-.15.572.572 0 0 1-.141-.402c0-.214.087-.58.261-1.1l.888-2.674c.113-.332.17-.592.17-.778 0-.09-.032-.16-.094-.216a.34.34 0 0 0-.235-.083c-.173.01-.341.065-.488.158-.361.2-.734.526-1.124.987-.457.552-.87 1.138-1.235 1.754-.228.378-.419.79-.57 1.234l-.319 1.11h-.984l1.213-4.196c.143-.494.214-.793.214-.894a.342.342 0 0 0-.117-.254.405.405 0 0 0-.288-.11 2.57 2.57 0 0 0-.274.03l-.25.038-.067-.248 2.295-.407zm7.179 0l-1.402 4.709a3.395 3.395 0 0 0-.142.57c0 .071.019.124.058.17a.183.183 0 0 0 .139.064c.06 0 .135-.036.221-.104.234-.198.469-.48.708-.849l.233.152a4.456 4.456 0 0 1-1.021 1.148c-.289.228-.565.343-.828.343a.582.582 0 0 1-.428-.163.545.545 0 0 1-.164-.409c0-.166.059-.44.177-.822l.927-2.995c.143-.493.214-.804.214-.93a.312.312 0 0 0-.104-.24.4.4 0 0 0-.285-.095c-.098 0-.301.025-.609.073v-.248l2.306-.374zm-.281-2.632c.187 0 .344.065.474.192.129.13.194.287.194.474a.64.64 0 0 1-.197.47.643.643 0 0 1-.471.195.649.649 0 0 1-.471-.195.64.64 0 0 1-.196-.47.65.65 0 0 1 .411-.618.65.65 0 0 1 .256-.048zm6.021 7.217c-.461.556-.926.964-1.396 1.227-.47.263-.967.391-1.49.391-.63 0-1.12-.177-1.473-.532-.352-.356-.529-.835-.529-1.436 0-.682.19-1.354.57-2.01a4.61 4.61 0 0 1 1.529-1.607c.64-.412 1.27-.618 1.887-.618.483 0 .844.1 1.084.302a.941.941 0 0 1 .359.742 1.05 1.05 0 0 1-.253.704.572.572 0 0 1-.458.225.474.474 0 0 1-.344-.133.434.434 0 0 1-.136-.332.55.55 0 0 1 .05-.233 1.02 1.02 0 0 1 .207-.255.986.986 0 0 0 .189-.213.286.286 0 0 0 0-.273.281.281 0 0 0-.092-.1.969.969 0 0 0-.548-.132c-.436 0-.868.151-1.295.459-.426.307-.792.745-1.094 1.308-.364.685-.548 1.37-.548 2.055 0 .454.129.812.388 1.077.258.266.61.397 1.053.397.343 0 .682-.088 1.019-.257.335-.171.714-.482 1.132-.93l.189.174zm7.559-4.478l-1.297 4.523-.15.606a.613.613 0 0 0-.02.141.29.29 0 0 0 .048.166c.026.037.057.054.095.054.042 0 .095-.03.163-.095.125-.119.291-.381.497-.784l.227.16c-.261.449-.529.781-.803.997-.276.217-.531.328-.765.328-.162 0-.287-.047-.376-.144-.089-.095-.132-.234-.132-.417 0-.217.049-.503.147-.86l.146-.497c-.643.758-1.234 1.289-1.773 1.59-.389.217-.768.328-1.142.328a1.252 1.252 0 0 1-.927-.397c-.26-.265-.39-.63-.39-1.091 0-.696.23-1.43.691-2.202a5.617 5.617 0 0 1 1.756-1.855c.555-.367 1.078-.55 1.571-.55.295 0 .539.065.736.195.195.13.344.344.445.642l.219-.68 1.034-.158zm-2.463.335c-.309 0-.64.132-.988.39-.495.373-.936.923-1.321 1.65-.385.729-.579 1.388-.579 1.977 0 .296.087.53.258.702.172.172.368.26.589.26.55 0 1.148-.352 1.794-1.054.786-.933 1.168-1.89 1.143-2.87 0-.372-.081-.64-.241-.804a.868.868 0 0 0-.655-.251zm6.228-2.078l-.539 1.796h.893l-.107.426h-.915l-1.215 3.931c-.149.446-.223.736-.223.866 0 .074.016.13.046.166a.139.139 0 0 0 .051.042c.019.01.041.015.063.014.099 0 .23-.073.392-.222.095-.088.306-.36.636-.817l.22.166c-.386.586-.752.998-1.096 1.23a1.258 1.258 0 0 1-.712.243.606.606 0 0 1-.454-.184.643.643 0 0 1-.177-.47c0-.24.074-.607.224-1.1l1.168-3.864h-1.016l.067-.265c.49-.136.904-.332 1.244-.595.341-.263.726-.719 1.156-1.361h.294v-.002zm3.431 1.636l-1.404 4.709a3.392 3.392 0 0 0-.141.57c0 .071.019.124.058.17a.183.183 0 0 0 .138.064c.061 0 .136-.036.221-.104.235-.198.472-.48.71-.849l.234.152c-.289.459-.63.843-1.02 1.148-.289.228-.567.343-.83.343a.577.577 0 0 1-.553-.35.544.544 0 0 1-.041-.221c0-.166.061-.44.179-.823l.927-2.995c.143-.493.212-.804.212-.93a.31.31 0 0 0-.102-.24.4.4 0 0 0-.285-.095 5.15 5.15 0 0 0-.608.073v-.248l2.305-.374zm-.282-2.632a.656.656 0 0 1 .619.409.645.645 0 0 1 .047.257.657.657 0 0 1-.195.47.647.647 0 0 1-.471.195.647.647 0 0 1-.471-.195.651.651 0 0 1-.197-.47c0-.187.065-.344.194-.474a.655.655 0 0 1 .474-.192zm7.057 4.72c0 .67-.175 1.332-.53 1.986a4.01 4.01 0 0 1-1.479 1.553c-.633.384-1.247.575-1.843.575-.609 0-1.11-.195-1.493-.583-.387-.39-.578-.894-.578-1.515 0-.654.19-1.31.565-1.968a4.28 4.28 0 0 1 1.511-1.564c.63-.382 1.238-.572 1.827-.572.588 0 1.072.195 1.453.58.382.386.567.89.567 1.509zm-1.104-.467c0-.414-.101-.733-.302-.953a1.027 1.027 0 0 0-.785-.33c-.655 0-1.259.467-1.807 1.407-.55.936-.823 1.87-.823 2.798 0 .423.107.75.319.979.214.23.483.343.811.343.627 0 1.214-.464 1.765-1.398.549-.937.822-1.884.822-2.846zm4.613-1.621l-.883 3.065c.895-1.255 1.581-2.078 2.058-2.473.477-.396.937-.592 1.377-.592.24 0 .438.082.596.242.155.163.231.379.231.637 0 .266-.074.618-.217 1.057l-.92 2.783c-.107.32-.161.515-.161.586a.246.246 0 0 0 .048.15c.033.042.068.063.104.063.048 0 .104-.03.172-.086.211-.183.444-.464.697-.846l.206.127c-.397.584-.77.995-1.126 1.238-.245.166-.468.25-.663.25a.492.492 0 0 1-.376-.15.561.561 0 0 1-.141-.402c0-.214.088-.58.26-1.1l.889-2.674c.112-.332.169-.592.169-.778a.28.28 0 0 0-.096-.216.333.333 0 0 0-.231-.083c-.174.01-.343.064-.491.158-.359.2-.734.526-1.123.987-.457.551-.87 1.138-1.234 1.754-.234.39-.425.804-.568 1.234l-.323 1.11h-.98l1.211-4.196c.145-.494.214-.793.214-.894a.335.335 0 0 0-.031-.139.407.407 0 0 0-.372-.225c-.053 0-.144.012-.276.03l-.248.038-.068-.248 2.296-.407zm8.807 0l-.409 2.044h-.248c-.023-.595-.15-1.03-.379-1.3a1.066 1.066 0 0 0-.85-.405c-.273 0-.491.074-.649.225a.735.735 0 0 0-.242.547c0 .147.033.291.095.423.065.133.204.32.418.562.571.632.939 1.109 1.107 1.43.167.32.248.623.248.907 0 .462-.192.874-.575 1.233-.384.361-.87.539-1.457.539-.322 0-.689-.074-1.11-.223a1.084 1.084 0 0 0-.338-.08c-.201 0-.352.102-.454.303h-.245l.409-2.169h.248c.029.68.169 1.162.424 1.444.257.281.604.423 1.05.423.339 0 .607-.095.808-.284a.92.92 0 0 0 .3-.7 1.168 1.168 0 0 0-.107-.493c-.125-.268-.388-.637-.785-1.109-.401-.473-.658-.825-.77-1.062a1.637 1.637 0 0 1-.17-.71c0-.432.155-.796.469-1.095.313-.299.714-.449 1.208-.449.142 0 .269.012.384.033.062.015.21.066.435.152.229.09.382.133.457.133.189 0 .35-.107.477-.32h.251z" fill="#132342"/></svg>