<svg width="161" height="20" viewBox="0 0 161 20" fill="none" xmlns="http://www.w3.org/2000/svg"><path d="M9.66 0C4.327 0 0 4.753 0 10.273 0 15.794 4.327 20 9.66 20h9.66c5.333 0 9.66-4.466 9.66-10 0-5.52-4.327-10-9.66-10H9.66zM32.2 0v20h3.22V3.333h12.792c1.723 0 3.308 1.641 3.308 3.438 0 1.784-1.585 3.229-3.308 3.229H38.64l11.61 10h4.49l-7.987-6.667h1.698c3.61 0 6.289-2.838 6.289-6.562C54.74 3.034 52.06 0 48.45 0H32.2zm38.64 0c-.868 0-1.648.456-2.113 1.21L57.96 20h3.484L70.84 3.333l5.673 10H67.62l3.22 3.334h7.56L80.299 20h3.421L72.903 1.185C72.45.443 71.683 0 70.84 0zm22.54 0c-5.333 0-9.66 4.48-9.66 10s4.327 10 9.66 10h12.88l3.22-3.333H93.317c-3.522 0-6.377-2.982-6.377-6.667 0-3.672 2.855-6.667 6.377-6.667h12.943L109.48 0h-16.1zm19.32 0v18.086c0 .495.189.963.541 1.341.352.365.843.573 1.358.573H128.8l3.22-3.333h-16.1V0h-3.22zm32.2 0c-5.333 0-9.66 4.48-9.66 10s4.327 10 9.66 10h12.88l3.22-3.333h-16.163c-2.968 0-5.446-2.123-6.151-5h19.094L161 8.333h-22.314c.717-2.864 3.183-5 6.151-5h12.943L161 0h-16.1zM9.597 3.333h9.786c3.522 0 6.377 2.995 6.377 6.667 0 3.685-2.855 6.667-6.377 6.667H9.597c-3.522 0-6.377-2.982-6.377-6.667 0-3.672 2.855-6.667 6.377-6.667z" fill="#132342"/></svg>