<svg width="96" height="17" viewBox="0 0 96 17" fill="none" xmlns="http://www.w3.org/2000/svg"><path d="M80.112 0v2.685h9.928V0h-9.928zM91.98 6.096l-1.873-1.899-7.02 7.12 1.872 1.9 7.02-7.121zm1.373 10.017H96V6.043h-2.647v10.07zm-88.364-4.09c-1.704 0-2.964-.366-3.779-1.098C.403 10.185 0 9.05 0 7.52c0-1.505.416-2.615 1.247-3.33.832-.724 2.12-1.086 3.865-1.086 2.898 0 4.47 1.024 4.718 3.072H8.669c-.107-.7-.453-1.214-1.037-1.543-.577-.337-1.416-.505-2.52-.505-1.383 0-2.387.267-3.013.802-.617.526-.926 1.394-.926 2.603 0 1.225.305 2.109.914 2.652.61.543 1.593.814 2.951.814 2.355 0 3.606-.76 3.754-2.282h1.173c-.098 1.085-.576 1.908-1.432 2.467-.848.56-2.03.839-3.544.839zm10.077 0c-1.317 0-2.288-.276-2.914-.827-.617-.559-.926-1.427-.926-2.603 0-1.16.313-2.015.938-2.566.626-.55 1.593-.826 2.902-.826 1.293 0 2.252.28 2.877.839.626.55.939 1.402.939 2.553 0 1.168-.313 2.032-.939 2.591-.617.56-1.576.839-2.877.839zm0-.987c.955 0 1.634-.19 2.038-.567.403-.379.605-1.004.605-1.876 0-.863-.202-1.48-.605-1.85-.404-.37-1.083-.555-2.038-.555-.947 0-1.63.189-2.05.567-.42.379-.63.991-.63 1.838 0 .864.21 1.489.63 1.876.42.378 1.104.567 2.05.567zm10.505-2.64v.123c1.004.214 1.507.745 1.507 1.592 0 1.274-1.165 1.912-3.495 1.912-2.305 0-3.515-.724-3.63-2.171h1.135c.116.79.943 1.184 2.482 1.184 1.54 0 2.31-.35 2.31-1.049 0-.353-.181-.608-.544-.764-.354-.165-.917-.247-1.691-.247h-1.63v-.987h1.63c.716 0 1.239-.074 1.568-.222.33-.148.494-.383.494-.703 0-.584-.696-.876-2.087-.876-1.474 0-2.248.378-2.322 1.135h-1.16c.065-.716.382-1.246.95-1.592.577-.353 1.433-.53 2.569-.53 2.165 0 3.248.592 3.248 1.776 0 .708-.445 1.18-1.334 1.419zm9.376-3.01v5.477h.765v3.047h-1.185v-2.072h-5.57v2.072h-1.185v-3.047h.741c.617-.501.926-1.554.926-3.158V5.386h5.508zm-5.088 5.477h3.902V6.361h-3.149v1.53c0 1.258-.25 2.249-.753 2.972zM39.882 5.2c1.054 0 1.836.207 2.346.618.51.411.766 1.04.766 1.887v4.133h-1.161v-1.123c-.453.872-1.284 1.308-2.494 1.308-1.853 0-2.779-.658-2.779-1.974 0-1.373 1.02-2.06 3.063-2.06.831 0 1.568.099 2.21.296v-.58c0-.526-.157-.909-.47-1.147-.312-.247-.802-.37-1.469-.37-1.177 0-1.803.308-1.877.925h-1.099c.09-1.275 1.079-1.912 2.964-1.912zm-.334 5.873c.65 0 1.178-.128 1.581-.382.412-.264.646-.613.704-1.049v-.42c-.626-.197-1.342-.295-2.149-.295-1.3 0-1.95.374-1.95 1.122 0 .683.604 1.024 1.814 1.024zm10.456-3.096V5.386h1.16v6.452h-1.16V8.95h-3.94v2.887h-1.16V5.386h1.16v2.59h3.94zm6.606 4.046c-1.317 0-2.288-.276-2.914-.827-.617-.559-.926-1.427-.926-2.603 0-1.16.313-2.015.939-2.566.625-.55 1.593-.826 2.901-.826 1.293 0 2.252.28 2.878.839.625.55.938 1.402.938 2.553 0 1.168-.313 2.032-.938 2.591-.618.56-1.577.839-2.877.839zm0-.987c.956 0 1.635-.19 2.038-.567.403-.379.605-1.004.605-1.876 0-.863-.202-1.48-.605-1.85-.403-.37-1.083-.555-2.038-.555-.946 0-1.63.189-2.05.567-.42.379-.63.991-.63 1.838 0 .864.21 1.489.63 1.876.42.378 1.104.567 2.05.567zm14.208-2.64v.111c.897.206 1.346.711 1.346 1.517 0 1.21-.873 1.814-2.618 1.814h-3.828V5.386h3.766c1.647 0 2.47.535 2.47 1.604 0 .362-.086.654-.26.876-.172.213-.464.39-.876.53zm-3.94-2.035v1.628h2.644c.428 0 .74-.062.938-.185.198-.132.296-.341.296-.63 0-.542-.452-.813-1.358-.813h-2.52zm0 2.603v1.9h2.631c.98 0 1.47-.31 1.47-.926 0-.337-.12-.584-.358-.74-.24-.156-.614-.234-1.124-.234h-2.618z" fill="#fff"/></svg>