<svg width="32" height="32" viewBox="0 0 32 32" fill="none" xmlns="http://www.w3.org/2000/svg"><path d="M26 31.5H6A2.503 2.503 0 0 1 3.5 29V3C3.5 1.622 4.622.5 6 .5h10.172a2.483 2.483 0 0 1 1.767.732l9.829 9.829a2.48 2.48 0 0 1 .732 1.767V29c0 1.378-1.122 2.5-2.5 2.5zM6 1.5c-.827 0-1.5.673-1.5 1.5v26c0 .827.673 1.5 1.5 1.5h20c.827 0 1.5-.673 1.5-1.5V12.828a1.51 1.51 0 0 0-.44-1.06l-9.828-9.829a1.491 1.491 0 0 0-1.06-.439H6z" fill="#FD4233"/><path d="M23.802 20.08c-.017-.127-.12-.287-.23-.395-.314-.31-1.007-.473-2.062-.487a17.04 17.04 0 0 0-2.48.182c-.405-.232-.823-.488-1.15-.795-.883-.823-1.617-1.965-2.077-3.223.03-.117.054-.22.08-.325 0 0 .495-2.82.364-3.775a1.097 1.097 0 0 0-.064-.27l-.043-.11c-.135-.312-.4-.642-.815-.624l-.245-.008h-.005c-.465 0-.84.238-.94.59-.3 1.11.01 2.773.572 4.922l-.145.35c-.402.986-.907 1.976-1.352 2.848l-.058.113c-.47.917-.894 1.697-1.282 2.357l-.397.21c-.03.015-.713.377-.873.473-1.357.812-2.257 1.732-2.407 2.462-.048.235-.013.533.23.67l.385.195c.167.082.345.125.525.125.967 0 2.09-1.205 3.637-3.905a36.184 36.184 0 0 1 5.603-1.33c1.357.763 3.027 1.295 4.082 1.295.188 0 .35-.017.48-.052a.834.834 0 0 0 .477-.326c.206-.307.246-.732.19-1.167zm-14.68 4.753c.176-.483.876-1.438 1.908-2.283.065-.053.225-.203.37-.343-1.08 1.723-1.802 2.408-2.277 2.625zm6.116-14.083c.31 0 .487.783.502 1.518.015.734-.158 1.25-.37 1.632-.177-.565-.262-1.455-.262-2.037 0 0-.013-1.113.13-1.113zm-1.825 10.035c.217-.387.442-.797.672-1.23a23.032 23.032 0 0 0 1.18-2.575 8.517 8.517 0 0 0 1.947 2.418c.098.08.2.162.305.244-1.562.308-2.915.686-4.104 1.143zm9.857-.087c-.095.057-.367.092-.543.092-.564 0-1.267-.258-2.25-.68a14.8 14.8 0 0 1 1.035-.043c.568 0 .735-.002 1.293.14.555.143.563.43.465.49z" fill="#FF402F"/></svg>